# xmcd CD database file
#
# Track frame offsets:
#	150
#	40110
#	79767
#	115302
#	150612
#	189042
#	218372
#
# Disc length: 3187 seconds
#
# Revision: 1
# Processed by: cddbd v1.4PL0 Copyright (c) Steve Scherf et al.
# Submitted via: CDex 1.50Beta7
#
DISCID=480c7107
DTITLE=Vasvári, Csepregi, Dave Samuels - In Line
DYEAR=1900
DGENRE=Jazz
TTITLE0=Duck Song
TTITLE1=Dad
TTITLE2=Chease and Wine
TTITLE3=Waltz for Márta
TTITLE4=Innsbruck
TTITLE5=After a Normal Wedding
TTITLE6=Piece Pipe
EXTD=
EXTT0=
EXTT1=
EXTT2=
EXTT3=
EXTT4=
EXTT5=
EXTT6=
PLAYORDER=
